<svg width="40" height="22" viewBox="0 0 40 22" fill="none" xmlns="http://www.w3.org/2000/svg">
<g clip-path="url(#clip0_2_128)">
<path d="M10.9804 0.5H29.0196C34.8069 0.5 39.5 5.20017 39.5 11C39.5 16.7998 34.8069 21.5 29.0196 21.5H10.9804C5.19307 21.5 0.5 16.7998 0.5 11C0.5 5.20017 5.19307 0.5 10.9804 0.5Z" fill="#FAF4E6" stroke="#222222"/>
<path d="M29.0196 0.392853H10.9804C5.13267 0.392853 0.392151 5.14183 0.392151 11C0.392151 16.8582 5.13267 21.6071 10.9804 21.6071H29.0196C34.8673 21.6071 39.6078 16.8582 39.6078 11C39.6078 5.14183 34.8673 0.392853 29.0196 0.392853Z" fill="#FAF4E6" stroke="#222222"/>
<path d="M29.0196 19.6429C33.7844 19.6429 37.6471 15.7733 37.6471 11C37.6471 6.22669 33.7844 2.35715 29.0196 2.35715C24.2548 2.35715 20.3922 6.22669 20.3922 11C20.3922 15.7733 24.2548 19.6429 29.0196 19.6429Z" fill="#3C3B3A"/>
</g>
<defs>
<clipPath id="clip0_2_128">
<rect width="40" height="22" fill="white"/>
</clipPath>
</defs>
</svg>
