<svg width="32" height="33" viewBox="0 0 32 33" fill="none" xmlns="http://www.w3.org/2000/svg">
<path d="M23.4841 21.188C25.4207 18.5453 26.2881 15.2689 25.9127 12.0143C25.5373 8.75957 23.9469 5.76663 21.4596 3.63422C18.9723 1.5018 15.7716 0.387164 12.4978 0.51331C9.22393 0.639457 6.11846 1.99708 3.80262 4.31457C1.48679 6.63206 0.131388 9.73851 0.00758408 13.0124C-0.11622 16.2863 1.00071 19.4863 3.1349 21.972C5.2691 24.4578 8.26318 26.0461 11.5181 26.4191C14.7731 26.7922 18.0488 25.9224 20.6901 23.984H20.6881C20.7468 24.064 20.8121 24.1406 20.8841 24.214L28.5841 31.914C28.9591 32.2892 29.4678 32.5002 29.9984 32.5004C30.5289 32.5005 31.0378 32.29 31.4131 31.915C31.7884 31.5399 31.9993 31.0312 31.9995 30.5007C31.9997 29.9701 31.7891 29.4612 31.4141 29.086L23.7141 21.386C23.6426 21.3135 23.5657 21.2487 23.4841 21.188ZM24.0001 13.5C24.0001 14.9445 23.7156 16.3749 23.1628 17.7095C22.61 19.0441 21.7997 20.2567 20.7783 21.2781C19.7568 22.2996 18.5442 23.1098 17.2096 23.6626C15.875 24.2154 14.4446 24.5 13.0001 24.5C11.5555 24.5 10.1252 24.2154 8.79057 23.6626C7.45599 23.1098 6.24336 22.2996 5.22191 21.2781C4.20047 20.2567 3.39021 19.0441 2.83741 17.7095C2.28461 16.3749 2.00009 14.9445 2.00009 13.5C2.00009 10.5826 3.15901 7.78468 5.22191 5.72178C7.28481 3.65888 10.0827 2.49996 13.0001 2.49996C15.9175 2.49996 18.7154 3.65888 20.7783 5.72178C22.8412 7.78468 24.0001 10.5826 24.0001 13.5Z" fill="#2F322F"/>
</svg>
