<?xml version="1.0" encoding="UTF-8"?>
<!DOCTYPE svg PUBLIC "-//W3C//DTD SVG 1.1//EN" "http://www.w3.org/Graphics/SVG/1.1/DTD/svg11.dtd">
<svg xmlns="http://www.w3.org/2000/svg" version="1.1" width="736px" height="736px" style="shape-rendering:geometricPrecision; text-rendering:geometricPrecision; image-rendering:optimizeQuality; fill-rule:evenodd; clip-rule:evenodd" xmlns:xlink="http://www.w3.org/1999/xlink">
<g><path style="opacity:1" fill="#000000" d="M -0.5,-0.5 C 244.833,-0.5 490.167,-0.5 735.5,-0.5C 735.5,244.833 735.5,490.167 735.5,735.5C 490.167,735.5 244.833,735.5 -0.5,735.5C -0.5,490.167 -0.5,244.833 -0.5,-0.5 Z"/></g>
<g><path style="opacity:1" fill="#fafafa" d="M 564.5,133.5 C 586.994,134.497 609.661,134.831 632.5,134.5C 631.841,163.519 632.508,192.186 634.5,220.5C 670.644,289.325 679.478,361.658 661,437.5C 654.772,461.286 645.772,483.953 634,505.5C 633.5,558.832 633.333,612.166 633.5,665.5C 456.5,665.5 279.5,665.5 102.5,665.5C 102.667,612.499 102.5,559.499 102,506.5C 64.8747,435.263 56.208,360.597 76,282.5C 82.1293,260.444 90.7959,239.444 102,219.5C 102.5,190.835 102.667,162.169 102.5,133.5C 125.502,133.667 148.502,133.5 171.5,133C 256.358,64.1948 351.691,44.5281 457.5,74C 497.412,86.6129 533.079,106.446 564.5,133.5 Z"/></g>
<g><path style="opacity:1" fill="#010101" d="M 535.5,132.5 C 423.5,133.833 311.5,133.833 199.5,132.5C 275.995,79.3613 359.328,65.1946 449.5,90C 480.815,99.1585 509.482,113.325 535.5,132.5 Z"/></g>
<g><path style="opacity:1" fill="#a9a9a9" d="M 199.5,132.5 C 311.5,133.833 423.5,133.833 535.5,132.5C 536.043,132.56 536.376,132.893 536.5,133.5C 423.833,134.833 311.167,134.833 198.5,133.5C 198.624,132.893 198.957,132.56 199.5,132.5 Z"/></g>
<g><path style="opacity:1" fill="#cacaca" d="M 564.5,133.5 C 587.5,133.5 610.5,133.5 633.5,133.5C 633.175,162.574 633.509,191.574 634.5,220.5C 632.508,192.186 631.841,163.519 632.5,134.5C 609.661,134.831 586.994,134.497 564.5,133.5 Z"/></g>
<g><path style="opacity:1" fill="#6a6a6a" d="M 357.5,269.5 C 358.499,230.337 358.832,191.004 358.5,151.5C 302.664,151.168 246.998,151.501 191.5,152.5C 190.624,152.631 189.957,152.298 189.5,151.5C 246.163,150.5 302.829,150.167 359.5,150.5C 359.833,190.506 359.5,230.506 358.5,270.5C 357.893,270.376 357.56,270.043 357.5,269.5 Z"/></g>
<g><path style="opacity:1" fill="#6e6e6e" d="M 376.5,151.5 C 432.668,150.169 489.001,150.169 545.5,151.5C 545.376,152.107 545.043,152.44 544.5,152.5C 488.669,151.501 432.669,151.168 376.5,151.5 Z"/></g>
<g><path style="opacity:1" fill="#0e0e0e" d="M 119.5,150.5 C 130.187,150.168 140.854,150.501 151.5,151.5C 140.284,163.613 129.784,176.28 120,189.5C 119.5,176.504 119.333,163.504 119.5,150.5 Z"/></g>
<g><path style="opacity:1" fill="#010101" d="M 191.5,152.5 C 246.998,151.501 302.664,151.168 358.5,151.5C 358.832,191.004 358.499,230.337 357.5,269.5C 302.167,230.5 246.833,191.5 191.5,152.5 Z"/></g>
<g><path style="opacity:1" fill="#010101" d="M 376.5,151.5 C 432.669,151.168 488.669,151.501 544.5,152.5C 488.608,191.701 432.775,231.034 377,270.5C 376.5,230.835 376.333,191.168 376.5,151.5 Z"/></g>
<g><path style="opacity:1" fill="#040404" d="M 584.5,152.5 C 594.653,151.506 604.986,151.172 615.5,151.5C 615.829,164.011 615.495,176.345 614.5,188.5C 605.6,175.599 595.6,163.599 584.5,152.5 Z"/></g>
<g><path style="opacity:1" fill="#010101" d="M 616.5,278.5 C 542.998,278.833 469.665,278.499 396.5,277.5C 453.058,237.966 509.558,198.299 566,158.5C 585.721,177.541 602.387,198.875 616,222.5C 616.5,241.164 616.667,259.83 616.5,278.5 Z"/></g>
<g><path style="opacity:1" fill="#010101" d="M 339.5,277.5 C 266.335,278.499 193.002,278.833 119.5,278.5C 119.333,259.83 119.5,241.164 120,222.5C 133.366,198.78 149.866,177.446 169.5,158.5C 226.196,198.176 282.862,237.843 339.5,277.5 Z"/></g>
<g><path style="opacity:1" fill="#585858" d="M 614.5,188.5 C 615.495,176.345 615.829,164.011 615.5,151.5C 604.986,151.172 594.653,151.506 584.5,152.5C 583.957,152.44 583.624,152.107 583.5,151.5C 594.48,150.501 605.48,150.168 616.5,150.5C 616.667,163.837 616.5,177.171 616,190.5C 615.283,189.956 614.783,189.289 614.5,188.5 Z"/></g>
<g><path style="opacity:1" fill="#060606" d="M 100.5,263.5 C 101.833,329.5 101.833,395.5 100.5,461.5C 93.4341,442.365 88.4341,422.698 85.5,402.5C 85.473,396.949 84.8063,391.616 83.5,386.5C 80.1561,344.233 85.8228,303.233 100.5,263.5 Z"/></g>
<g><path style="opacity:1" fill="#050505" d="M 634.5,261.5 C 658.423,329.13 658.423,396.796 634.5,464.5C 633.167,396.833 633.167,329.167 634.5,261.5 Z"/></g>
<g><path style="opacity:1" fill="#bdbdbd" d="M 339.5,277.5 C 340.043,277.56 340.376,277.893 340.5,278.5C 266.668,279.832 193.001,279.832 119.5,278.5C 193.002,278.833 266.335,278.499 339.5,277.5 Z"/></g>
<g><path style="opacity:1" fill="#bdbdbd" d="M 396.5,277.5 C 469.665,278.499 542.998,278.833 616.5,278.5C 542.999,279.832 469.332,279.832 395.5,278.5C 395.624,277.893 395.957,277.56 396.5,277.5 Z"/></g>
<g><path style="opacity:1" fill="#444444" d="M 100.5,461.5 C 101.833,395.5 101.833,329.5 100.5,263.5C 100.987,262.527 101.487,261.527 102,260.5C 102.667,328.833 102.667,397.167 102,465.5C 101.209,464.255 100.709,462.922 100.5,461.5 Z"/></g>
<g><path style="opacity:1" fill="#d7d7d7" d="M 634.5,261.5 C 633.167,329.167 633.167,396.833 634.5,464.5C 634.44,465.043 634.107,465.376 633.5,465.5C 632.167,396.833 632.167,328.167 633.5,259.5C 634.298,259.957 634.631,260.624 634.5,261.5 Z"/></g>
<g><path style="opacity:1" fill="#616161" d="M 119.5,296.5 C 199.332,295.501 279.332,295.167 359.5,295.5C 359.832,329.671 359.498,363.671 358.5,397.5C 358.5,363.833 358.5,330.167 358.5,296.5C 278.833,296.5 199.167,296.5 119.5,296.5 Z"/></g>
<g><path style="opacity:1" fill="#000000" d="M 119.5,296.5 C 199.167,296.5 278.833,296.5 358.5,296.5C 358.5,330.167 358.5,363.833 358.5,397.5C 308.55,464.623 258.383,531.623 208,598.5C 171.341,573.511 142.007,541.845 120,503.5C 119.5,434.501 119.333,365.501 119.5,296.5 Z"/></g>
<g><path style="opacity:1" fill="#000000" d="M 376.5,296.5 C 456.167,296.5 535.833,296.5 615.5,296.5C 615.5,365.5 615.5,434.5 615.5,503.5C 594.185,540.9 565.851,572.066 530.5,597C 529.241,597.982 527.908,598.315 526.5,598C 476.545,531.256 426.712,464.423 377,397.5C 376.5,363.835 376.333,330.168 376.5,296.5 Z"/></g>
<g><path style="opacity:1" fill="#525252" d="M 376.5,296.5 C 456.332,295.501 536.332,295.167 616.5,295.5C 616.833,365.002 616.499,434.335 615.5,503.5C 615.5,434.5 615.5,365.5 615.5,296.5C 535.833,296.5 456.167,296.5 376.5,296.5 Z"/></g>
<g><path style="opacity:1" fill="#b4b4b4" d="M 83.5,386.5 C 84.8063,391.616 85.473,396.949 85.5,402.5C 84.0427,397.402 83.376,392.069 83.5,386.5 Z"/></g>
<g><path style="opacity:1" fill="#010101" d="M 357.5,427.5 C 358.499,500.665 358.833,573.998 358.5,647.5C 315.361,646.382 274.694,635.882 236.5,616C 231.788,613.651 227.455,610.817 223.5,607.5C 268.176,547.47 312.842,487.47 357.5,427.5 Z"/></g>
<g><path style="opacity:1" fill="#010101" d="M 377.5,426.5 C 422.142,486.815 466.809,547.148 511.5,607.5C 505.197,612.659 498.197,616.826 490.5,620C 456.594,635.893 420.927,645.06 383.5,647.5C 381.167,647.5 378.833,647.5 376.5,647.5C 376.167,573.665 376.501,499.998 377.5,426.5 Z"/></g>
<g><path style="opacity:1" fill="#c7c7c7" d="M 377.5,426.5 C 376.501,499.998 376.167,573.665 376.5,647.5C 378.833,647.5 381.167,647.5 383.5,647.5C 381.052,648.473 378.385,648.806 375.5,648.5C 375.333,573.833 375.5,499.166 376,424.5C 376.717,425.044 377.217,425.711 377.5,426.5 Z"/></g>
<g><path style="opacity:1" fill="#5d5d5d" d="M 358.5,647.5 C 358.833,573.998 358.499,500.665 357.5,427.5C 357.783,426.711 358.283,426.044 359,425.5C 359.832,499.668 359.666,573.668 358.5,647.5 Z"/></g>
<g><path style="opacity:1" fill="#020202" d="M 614.5,537.5 C 615.498,573.996 615.832,610.663 615.5,647.5C 567.33,647.832 519.33,647.499 471.5,646.5C 530.41,624.924 578.077,588.591 614.5,537.5 Z"/></g>
<g><path style="opacity:1" fill="#010101" d="M 122.5,540.5 C 159.301,589.972 206.635,625.305 264.5,646.5C 216.67,647.499 168.67,647.832 120.5,647.5C 120.523,613.341 120.523,579.341 120.5,545.5C 121.187,543.823 121.854,542.156 122.5,540.5 Z"/></g>
<g><path style="opacity:1" fill="#d6d6d6" d="M 120.5,536.5 C 119.502,573.33 119.168,610.33 119.5,647.5C 118.17,610.331 118.17,572.998 119.5,535.5C 120.107,535.624 120.44,535.957 120.5,536.5 Z"/></g>
<g><path style="opacity:1" fill="#4a4a4a" d="M 615.5,647.5 C 615.832,610.663 615.498,573.996 614.5,537.5C 614.783,536.711 615.283,536.044 616,535.5C 616.831,573.002 616.664,610.336 615.5,647.5 Z"/></g>
<g><path style="opacity:1" fill="#191919" d="M 120.5,536.5 C 121.6,537.605 122.267,538.938 122.5,540.5C 121.854,542.156 121.187,543.823 120.5,545.5C 120.523,579.341 120.523,613.341 120.5,647.5C 120.167,647.5 119.833,647.5 119.5,647.5C 119.168,610.33 119.502,573.33 120.5,536.5 Z"/></g>
<g><path style="opacity:1" fill="#979797" d="M 264.5,646.5 C 265.376,646.369 266.043,646.702 266.5,647.5C 217.335,648.831 168.335,648.831 119.5,647.5C 119.833,647.5 120.167,647.5 120.5,647.5C 168.67,647.832 216.67,647.499 264.5,646.5 Z"/></g>
<g><path style="opacity:1" fill="#969696" d="M 471.5,646.5 C 519.33,647.499 567.33,647.832 615.5,647.5C 566.668,648.665 517.668,648.832 468.5,648C 469.244,646.961 470.244,646.461 471.5,646.5 Z"/></g>
</svg>
