<svg width="32" height="32" viewBox="0 0 32 32" fill="none" xmlns="http://www.w3.org/2000/svg">
<path id="Vector" d="M27.0001 1.99861C26.2044 1.99861 25.4414 2.31468 24.8788 2.87728C24.3162 3.43988 24.0001 4.20293 24.0001 4.99856C24.0001 5.7942 24.3162 6.55725 24.8788 7.11985C25.4414 7.68245 26.2044 7.99851 27.0001 7.99851C27.7957 7.99851 28.5588 7.68245 29.1214 7.11985C29.684 6.55725 30 5.7942 30 4.99856C30 4.20293 29.684 3.43988 29.1214 2.87728C28.5588 2.31468 27.7957 1.99861 27.0001 1.99861ZM22.0002 4.99856C22 3.82545 22.4124 2.68963 23.1651 1.78984C23.9178 0.890042 24.9629 0.283567 26.1176 0.0765173C27.2723 -0.130532 28.4631 0.0750299 29.4815 0.657238C30.5 1.23945 31.2813 2.16123 31.6887 3.26131C32.0962 4.36139 32.1039 5.56971 31.7104 6.67488C31.3169 7.78005 30.5474 8.71168 29.5364 9.30678C28.5255 9.90188 27.3374 10.1225 26.1802 9.93018C25.023 9.73782 23.9702 9.14467 23.2061 8.25451L9.77037 14.4944C10.0791 15.4733 10.0791 16.5235 9.77037 17.5024L23.2061 23.7423C24.0138 22.8029 25.1414 22.1969 26.3705 22.0416C27.5995 21.8863 28.8425 22.1928 29.8584 22.9017C30.8743 23.6105 31.5909 24.6713 31.8693 25.8785C32.1477 27.0856 31.9681 28.3531 31.3652 29.4353C30.7623 30.5175 29.7791 31.3374 28.6062 31.736C27.4333 32.1347 26.1541 32.0837 25.0167 31.5929C23.8792 31.1022 22.9644 30.2067 22.4496 29.0799C21.9348 27.9531 21.8566 26.6754 22.2302 25.4942L8.79438 19.2543C8.12926 20.0295 7.24271 20.5823 6.25398 20.8385C5.26526 21.0947 4.22179 21.0419 3.26395 20.6873C2.30611 20.3326 1.47986 19.6932 0.89633 18.8549C0.312803 18.0166 0 17.0198 0 15.9984C0 14.977 0.312803 13.9801 0.89633 13.1419C1.47986 12.3036 2.30611 11.6641 3.26395 11.3095C4.22179 10.9549 5.26526 10.9021 6.25398 11.1583C7.24271 11.4145 8.12926 11.9673 8.79438 12.7424L22.2302 6.50254C22.0772 6.01588 21.9997 5.50868 22.0002 4.99856ZM5.00045 12.9984C4.20481 12.9984 3.44176 13.3145 2.87916 13.8771C2.31656 14.4397 2.0005 15.2027 2.0005 15.9984C2.0005 16.794 2.31656 17.5571 2.87916 18.1197C3.44176 18.6823 4.20481 18.9983 5.00045 18.9983C5.79608 18.9983 6.55913 18.6823 7.12173 18.1197C7.68433 17.5571 8.0004 16.794 8.0004 15.9984C8.0004 15.2027 7.68433 14.4397 7.12173 13.8771C6.55913 13.3145 5.79608 12.9984 5.00045 12.9984ZM27.0001 23.9982C26.2044 23.9982 25.4414 24.3143 24.8788 24.8769C24.3162 25.4395 24.0001 26.2026 24.0001 26.9982C24.0001 27.7938 24.3162 28.5569 24.8788 29.1195C25.4414 29.6821 26.2044 29.9981 27.0001 29.9981C27.7957 29.9981 28.5588 29.6821 29.1214 29.1195C29.684 28.5569 30 27.7938 30 26.9982C30 26.2026 29.684 25.4395 29.1214 24.8769C28.5588 24.3143 27.7957 23.9982 27.0001 23.9982Z" fill="#003720"/>
</svg>
