<svg width="127" height="105" viewBox="0 0 127 105" fill="none" xmlns="http://www.w3.org/2000/svg">
<path d="M82.9405 68.6071H43.5441C42.66 68.6071 41.9434 69.2334 41.9434 70.0061V91.2349C41.9434 92.0075 42.66 92.6339 43.5441 92.6339H82.9405C83.8246 92.6339 84.5413 92.0075 84.5413 91.2349V70.0061C84.5413 69.2334 83.8246 68.6071 82.9405 68.6071Z" stroke="#AF8A54" stroke-width="5" stroke-linecap="round" stroke-linejoin="round"/>
<path d="M58.2744 76.5215H68.2161" stroke="#AF8A54" stroke-width="5" stroke-linecap="round" stroke-linejoin="round"/>
<path d="M42.9351 68.8788L34.1377 63.1149H44.635L47.2809 64.7163" stroke="#AF8A54" stroke-width="5" stroke-linecap="round" stroke-linejoin="round"/>
<path d="M84.0645 68.8788L92.8619 63.1149H82.3646L79.7188 64.7163" stroke="#AF8A54" stroke-width="5" stroke-linecap="round" stroke-linejoin="round"/>
<path d="M58.3006 57.0619H50.7996C50.2874 57.0619 49.7961 56.884 49.4339 56.5675C49.0717 56.2509 48.8682 55.8215 48.8682 55.3738" stroke="#E0DE22" stroke-width="5" stroke-linecap="round" stroke-linejoin="round"/>
<path d="M48.8755 48.8063V36.2609L42.9951 40.487C42.5995 40.7672 42.0933 40.8994 41.5866 40.8551C41.08 40.8107 40.6139 40.5932 40.2897 40.25L35.2428 34.8908C34.9191 34.5444 34.7652 34.1002 34.8148 33.6551C34.8644 33.2099 35.1133 32.8 35.5074 32.5147L48.9879 22.8195C49.3349 22.5714 49.7699 22.4365 50.2182 22.438H57.3223V22.6519C57.3068 24.0582 57.9073 25.4164 59.0006 26.4482C60.0938 27.4801 61.5972 28.1075 63.2027 28.2019C64.0387 28.2371 64.8741 28.1235 65.6584 27.868C66.4426 27.6125 67.1593 27.2203 67.7649 26.7154C68.3705 26.2104 68.8523 25.6031 69.1813 24.9305C69.5102 24.2578 69.6793 23.5337 69.6783 22.8022V22.438H76.7824C77.2307 22.4365 77.6657 22.5714 78.0127 22.8195L91.4932 32.5263C91.8873 32.8116 92.1363 33.2215 92.1858 33.6666C92.2354 34.1118 92.0815 34.556 91.7578 34.9023L86.7043 40.25C86.3779 40.5949 85.9082 40.8124 85.3984 40.8547C84.8886 40.8969 84.3804 40.7606 83.9857 40.4755L78.0325 36.1684L77.9466 55.3738C77.9413 55.819 77.7358 56.2445 77.3743 56.5583C77.0128 56.8721 76.5245 57.0488 76.0151 57.0503H58.3012" stroke="#E0DE22" stroke-width="5" stroke-linecap="round" stroke-linejoin="round"/>
<path d="M48.875 41.7705V32.9887" stroke="#E0DE22" stroke-width="5" stroke-linecap="round" stroke-linejoin="round"/>
<path d="M77.9531 41.7705V32.9887" stroke="#E0DE22" stroke-width="5" stroke-linecap="round" stroke-linejoin="round"/>
<path d="M37.3193 9.04858L44.4499 14.9397" stroke="#E0DE22" stroke-width="5" stroke-linecap="round" stroke-linejoin="round"/>
<path d="M63.5 14.9397V6.36609" stroke="#E0DE22" stroke-width="5" stroke-linecap="round" stroke-linejoin="round"/>
<path d="M89.6803 9.04858L82.5498 14.9397" stroke="#E0DE22" stroke-width="5" stroke-linecap="round" stroke-linejoin="round"/>
</svg>
