<svg width="22" height="18" viewBox="0 0 22 18" fill="none" xmlns="http://www.w3.org/2000/svg">
<path d="M19.7386 4.51894C19.7525 4.71436 19.7525 4.90983 19.7525 5.10525C19.7525 11.0659 15.2157 17.9339 6.92386 17.9339C4.36928 17.9339 1.9962 17.194 0 15.9098C0.362957 15.9517 0.711906 15.9656 1.08883 15.9656C3.19666 15.9656 5.13704 15.2537 6.68654 14.0393C4.7043 13.9974 3.04313 12.6992 2.47079 10.9123C2.75 10.9542 3.02917 10.9821 3.32234 10.9821C3.72715 10.9821 4.132 10.9263 4.50888 10.8286C2.4429 10.4098 0.893363 8.59509 0.893363 6.40347V6.34765C1.49359 6.68268 2.19162 6.89206 2.93141 6.91995C1.71695 6.11029 0.921293 4.72833 0.921293 3.16487C0.921293 2.32732 1.1446 1.55955 1.53549 0.8895C3.75504 3.62554 7.09135 5.4123 10.8324 5.60777C10.7626 5.27274 10.7207 4.92379 10.7207 4.5748C10.7207 2.09 12.7309 0.065918 15.2296 0.065918C16.5278 0.065918 17.7004 0.610332 18.524 1.48977C19.543 1.29435 20.5202 0.91743 21.3857 0.400945C21.0506 1.44792 20.3387 2.32736 19.4035 2.8857C20.3109 2.78803 21.1903 2.53671 21.9999 2.18776C21.3858 3.08112 20.618 3.87677 19.7386 4.51894Z" fill="#0065FF"/>
</svg>
