<svg width="40" height="41" viewBox="0 0 40 41" fill="none" xmlns="http://www.w3.org/2000/svg">
<path d="M20 28C18.0109 28 16.1032 27.2098 14.6967 25.8033C13.2902 24.3968 12.5 22.4891 12.5 20.5C12.5 18.5109 13.2902 16.6032 14.6967 15.1967C16.1032 13.7902 18.0109 13 20 13C21.9891 13 23.8968 13.7902 25.3033 15.1967C26.7098 16.6032 27.5 18.5109 27.5 20.5C27.5 22.4891 26.7098 24.3968 25.3033 25.8033C23.8968 27.2098 21.9891 28 20 28ZM20 30.5C22.6522 30.5 25.1957 29.4464 27.0711 27.5711C28.9464 25.6957 30 23.1522 30 20.5C30 17.8478 28.9464 15.3043 27.0711 13.4289C25.1957 11.5536 22.6522 10.5 20 10.5C17.3478 10.5 14.8043 11.5536 12.9289 13.4289C11.0536 15.3043 10 17.8478 10 20.5C10 23.1522 11.0536 25.6957 12.9289 27.5711C14.8043 29.4464 17.3478 30.5 20 30.5ZM20 0.5C20.3315 0.5 20.6495 0.631696 20.8839 0.866117C21.1183 1.10054 21.25 1.41848 21.25 1.75V6.75C21.25 7.08152 21.1183 7.39946 20.8839 7.63388C20.6495 7.8683 20.3315 8 20 8C19.6685 8 19.3505 7.8683 19.1161 7.63388C18.8817 7.39946 18.75 7.08152 18.75 6.75V1.75C18.75 1.41848 18.8817 1.10054 19.1161 0.866117C19.3505 0.631696 19.6685 0.5 20 0.5ZM20 33C20.3315 33 20.6495 33.1317 20.8839 33.3661C21.1183 33.6005 21.25 33.9185 21.25 34.25V39.25C21.25 39.5815 21.1183 39.8995 20.8839 40.1339C20.6495 40.3683 20.3315 40.5 20 40.5C19.6685 40.5 19.3505 40.3683 19.1161 40.1339C18.8817 39.8995 18.75 39.5815 18.75 39.25V34.25C18.75 33.9185 18.8817 33.6005 19.1161 33.3661C19.3505 33.1317 19.6685 33 20 33ZM40 20.5C40 20.8315 39.8683 21.1495 39.6339 21.3839C39.3995 21.6183 39.0815 21.75 38.75 21.75H33.75C33.4185 21.75 33.1005 21.6183 32.8661 21.3839C32.6317 21.1495 32.5 20.8315 32.5 20.5C32.5 20.1685 32.6317 19.8505 32.8661 19.6161C33.1005 19.3817 33.4185 19.25 33.75 19.25H38.75C39.0815 19.25 39.3995 19.3817 39.6339 19.6161C39.8683 19.8505 40 20.1685 40 20.5ZM7.5 20.5C7.5 20.8315 7.3683 21.1495 7.13388 21.3839C6.89946 21.6183 6.58152 21.75 6.25 21.75H1.25C0.918479 21.75 0.600537 21.6183 0.366117 21.3839C0.131696 21.1495 0 20.8315 0 20.5C0 20.1685 0.131696 19.8505 0.366117 19.6161C0.600537 19.3817 0.918479 19.25 1.25 19.25H6.25C6.58152 19.25 6.89946 19.3817 7.13388 19.6161C7.3683 19.8505 7.5 20.1685 7.5 20.5ZM34.1425 6.3575C34.3768 6.59191 34.5085 6.90979 34.5085 7.24125C34.5085 7.57271 34.3768 7.89059 34.1425 8.125L30.6075 11.6625C30.4913 11.7786 30.3533 11.8706 30.2016 11.9333C30.0498 11.9961 29.8871 12.0283 29.7229 12.0282C29.3912 12.028 29.0731 11.896 28.8387 11.6613C28.7227 11.545 28.6307 11.4071 28.5679 11.2553C28.5052 11.1035 28.4729 10.9409 28.4731 10.7766C28.4733 10.4449 28.6053 10.1269 28.84 9.8925L32.375 6.3575C32.6094 6.12316 32.9273 5.99152 33.2588 5.99152C33.5902 5.99152 33.9081 6.12316 34.1425 6.3575ZM11.16 29.34C11.3943 29.5744 11.526 29.8923 11.526 30.2237C11.526 30.5552 11.3943 30.8731 11.16 31.1075L7.625 34.6425C7.38925 34.8702 7.07349 34.9962 6.74575 34.9933C6.418 34.9905 6.10449 34.859 5.87273 34.6273C5.64097 34.3955 5.50951 34.082 5.50666 33.7542C5.50381 33.4265 5.6298 33.1108 5.8575 32.875L9.3925 29.34C9.62691 29.1057 9.94479 28.974 10.2762 28.974C10.6077 28.974 10.9256 29.1057 11.16 29.34ZM34.1425 34.6425C33.9081 34.8768 33.5902 35.0085 33.2588 35.0085C32.9273 35.0085 32.6094 34.8768 32.375 34.6425L28.84 31.1075C28.6123 30.8717 28.4863 30.556 28.4892 30.2282C28.492 29.9005 28.6235 29.587 28.8552 29.3552C29.087 29.1235 29.4005 28.992 29.7282 28.9892C30.056 28.9863 30.3717 29.1123 30.6075 29.34L34.1425 32.875C34.3768 33.1094 34.5085 33.4273 34.5085 33.7588C34.5085 34.0902 34.3768 34.4081 34.1425 34.6425ZM11.16 11.6625C10.9256 11.8968 10.6077 12.0285 10.2762 12.0285C9.94479 12.0285 9.62691 11.8968 9.3925 11.6625L5.8575 8.125C5.73811 8.00969 5.64288 7.87176 5.57737 7.71926C5.51186 7.56675 5.47738 7.40273 5.47594 7.23675C5.47449 7.07078 5.50612 6.90618 5.56897 6.75256C5.63182 6.59894 5.72464 6.45937 5.84201 6.34201C5.95937 6.22464 6.09894 6.13182 6.25256 6.06897C6.40618 6.00612 6.57078 5.97449 6.73675 5.97594C6.90273 5.97738 7.06675 6.01186 7.21926 6.07737C7.37176 6.14288 7.50969 6.23811 7.625 6.3575L11.16 9.8925C11.2764 10.0086 11.3688 10.1466 11.4318 10.2984C11.4948 10.4503 11.5272 10.6131 11.5272 10.7775C11.5272 10.9419 11.4948 11.1047 11.4318 11.2566C11.3688 11.4084 11.2764 11.5464 11.16 11.6625Z" fill="#282A26"/>
</svg>
