<svg width="32" height="33" viewBox="0 0 32 33" fill="none" xmlns="http://www.w3.org/2000/svg">
<g clip-path="url(#clip0_4365_720)">
<path d="M23.484 21.188C25.4206 18.5454 26.2879 15.269 25.9126 12.0143C25.5372 8.7596 23.9468 5.76666 21.4595 3.63425C18.9722 1.50183 15.7715 0.387194 12.4976 0.513341C9.22381 0.639487 6.11833 1.99711 3.8025 4.3146C1.48667 6.63209 0.131266 9.73854 0.00746201 13.0125C-0.116342 16.2864 1.00058 19.4863 3.13478 21.9721C5.26898 24.4578 8.26305 26.0461 11.518 26.4192C14.773 26.7922 18.0487 25.9225 20.69 23.984H20.688C20.7466 24.064 20.812 24.1407 20.884 24.214L28.584 31.914C28.959 32.2893 29.4677 32.5002 29.9983 32.5004C30.5288 32.5006 31.0377 32.29 31.413 31.915C31.7882 31.54 31.9992 31.0312 31.9994 30.5007C31.9996 29.9702 31.789 29.4613 31.414 29.086L23.714 21.386C23.6425 21.3136 23.5656 21.2487 23.484 21.188ZM24 13.5C24 14.9445 23.7154 16.3749 23.1626 17.7095C22.6098 19.0441 21.7996 20.2567 20.7781 21.2782C19.7567 22.2996 18.5441 23.1099 17.2095 23.6627C15.8749 24.2155 14.4445 24.5 13 24.5C11.5554 24.5 10.125 24.2155 8.79045 23.6627C7.45587 23.1099 6.24323 22.2996 5.22179 21.2782C4.20035 20.2567 3.39009 19.0441 2.83729 17.7095C2.28449 16.3749 1.99996 14.9445 1.99996 13.5C1.99996 10.5826 3.15889 7.78471 5.22179 5.72181C7.28469 3.65891 10.0826 2.49999 13 2.49999C15.9173 2.49999 18.7152 3.65891 20.7781 5.72181C22.841 7.78471 24 10.5826 24 13.5Z" fill="#CDD0CD"/>
</g>
<defs>
<clipPath id="clip0_4365_720">
<rect width="32" height="32" fill="white" transform="translate(0 0.5)"/>
</clipPath>
</defs>
</svg>
