<svg xmlns="http://www.w3.org/2000/svg" viewBox="0 0 850.14 977"><g id="forca"><path d="M910.86,991H90.71a15,15,0,0,1,0-30H910.86a15,15,0,1,1,0,30Z" transform="translate(-75.71 -14)"/><path d="M291.87,991h-.11a15,15,0,0,1-14.9-15.1c0-2.25,1.56-227.73,1.78-455.77.37-363.57-2.75-459.62-5.06-481.48L231.28,14H737.05v98.5a15,15,0,0,1-30,0V44H304c.46,6.93.89,16,1.28,27.09.88,25.1,1.6,61.62,2.14,108.54.89,78.89,1.3,188.37,1.2,325.4-.18,233.26-1.78,468.72-1.8,471.07A15,15,0,0,1,291.87,991Z" transform="translate(-75.71 -14)"/></g><g id="cabeca"><path d="M723.5,320.5a109,109,0,1,1,109-109A109.13,109.13,0,0,1,723.5,320.5Zm0-188a79,79,0,1,0,79,79A79.09,79.09,0,0,0,723.5,132.5Z" transform="translate(-75.71 -14)"/></g><g id="corpo"><path d="M720.5,648.5a15,15,0,0,1-15-15v-328a15,15,0,0,1,30,0v328A15,15,0,0,1,720.5,648.5Z" transform="translate(-75.71 -14)"/></g><g id="braesq"><path d="M558,601a15,15,0,0,1-12.51-23.26L708,331.24a15,15,0,0,1,25,16.52l-162.5,246.5A15,15,0,0,1,558,601Z" transform="translate(-75.71 -14)"/></g><g id="bradir"><path d="M883,601a15,15,0,0,1-12.53-6.74L708,347.76a15,15,0,1,1,25-16.52l162.5,246.5A15,15,0,0,1,883,601Z" transform="translate(-75.71 -14)"/></g><g id="peresq"><path d="M619.5,928.5a15,15,0,0,1-14.11-20.09l101-280a15,15,0,0,1,28.22,10.18l-101,280A15,15,0,0,1,619.5,928.5Z" transform="translate(-75.71 -14)"/></g><g id="perdir"><path d="M821.5,928.5a15,15,0,0,1-14.11-9.91l-101-280a15,15,0,0,1,28.22-10.18l101,280A15,15,0,0,1,821.5,928.5Z" transform="translate(-75.71 -14)"/></g></svg>