<svg xmlns="http://www.w3.org/2000/svg" viewBox="0 0 100 100"><path d="M285.84,281.46a.74.74,0,0,1,.55.09,1.61,1.61,0,0,1,.46.62l.16.3a2.32,2.32,0,0,0,1.23,1.19,2.25,2.25,0,0,0-.94.73,1.62,1.62,0,0,0-.29,1.22A1.88,1.88,0,0,0,288,287a2.72,2.72,0,0,0,1.87.32,2.89,2.89,0,0,0,2.32-1.76l0-.06-.7-.41,0,.06a1.59,1.59,0,0,1-1,.73,1.16,1.16,0,0,1-.84-.16.89.89,0,0,1-.43-.63.76.76,0,0,1,.16-.61.82.82,0,0,1,.56-.33,3.63,3.63,0,0,1,2,.61l.45.24a6.49,6.49,0,0,0,4,.92,3.9,3.9,0,0,0,2.53-1.43,3.25,3.25,0,0,0,.72-2.63,2.91,2.91,0,0,0-1.52-2.2,4.74,4.74,0,0,0-3.12-.44l-.29,0,.12.78h.07a2.43,2.43,0,0,1,1.77.44,2.25,2.25,0,0,1,.86,1.53,2.23,2.23,0,0,1-.5,1.82,2.72,2.72,0,0,1-1.76,1,3.1,3.1,0,0,1-2-.33,1.76,1.76,0,0,1-1-1.27.84.84,0,0,1,.14-.64.83.83,0,0,1,.55-.34.72.72,0,0,1,.56.1.81.81,0,0,1,.26.53,1.55,1.55,0,0,1-.05.58l0,.07.79.21,0-.07a4.09,4.09,0,0,0,.16-1.62,1.94,1.94,0,0,0-.74-1.27,1.71,1.71,0,0,0-1.37-.36,1.77,1.77,0,0,0-.84.36,2.15,2.15,0,0,0-.54.67,2.41,2.41,0,0,0-1.39-1,6.76,6.76,0,0,0-2.62,0l-1.46.23.13.79ZM290.9,283a3,3,0,0,1-1.87-1.25l-.14-.17a2.09,2.09,0,0,0-.68-.57A2.34,2.34,0,0,1,290.9,283Z" transform="translate(-262.5 -262.5)" style="fill:#ffc97e"/><path d="M316.89,281.66a3.93,3.93,0,0,0,2.84.59,6.49,6.49,0,0,0,3.58-2.12l.35-.37a3.74,3.74,0,0,1,1.69-1.19.92.92,0,0,1,.64.15.81.81,0,0,1,.34.53.89.89,0,0,1-.22.73,1.18,1.18,0,0,1-.75.42,1.55,1.55,0,0,1-1.19-.39l-.06,0-.54.6,0,.05a2.91,2.91,0,0,0,2.75,1,2.76,2.76,0,0,0,1.69-.87,1.9,1.9,0,0,0,.47-1.62,1.58,1.58,0,0,0-.65-1.07,2.13,2.13,0,0,0-1.11-.41,2.29,2.29,0,0,0,.8-1.51l.06-.33a1.86,1.86,0,0,1,.24-.74.76.76,0,0,1,.5-.24l.08,0-.13-.78-1.46.22a6.78,6.78,0,0,0-2.5.79,2.44,2.44,0,0,0-1,1.4,2,2,0,0,0-.71-.47,1.75,1.75,0,0,0-.91-.09,1.71,1.71,0,0,0-1.2.76,2,2,0,0,0-.31,1.44,4,4,0,0,0,.65,1.49l0,.06.69-.44,0-.06a1.35,1.35,0,0,1-.23-.54.79.79,0,0,1,.09-.59.73.73,0,0,1,.49-.26.82.82,0,0,1,.63.16.83.83,0,0,1,.34.57,1.77,1.77,0,0,1-.6,1.52,3.13,3.13,0,0,1-1.8.92,2.69,2.69,0,0,1-2-.41,2.23,2.23,0,0,1-1-1.57,2.34,2.34,0,0,1,.35-1.73,2.51,2.51,0,0,1,1.55-1l.07,0-.12-.78-.3.05a4.69,4.69,0,0,0-2.83,1.37,2.9,2.9,0,0,0-.77,2.56A3.23,3.23,0,0,0,316.89,281.66Zm9.1-6.54a2,2,0,0,0-.48.75l-.09.2a2.92,2.92,0,0,1-1.39,1.77A2.34,2.34,0,0,1,326,275.12Z" transform="translate(-262.5 -262.5)" style="fill:#ffc97e"/><path d="M277,312.8l1.06,2.19.33-2.41,3.71,1.3-2.37-3.13,2.19-1.06-2.41-.33,1.29-3.71L277.69,308l-1.06-2.19-.33,2.4-3.71-1.29,2.37,3.13-2.19,1.06,2.41.33-1.29,3.71Zm.21-3.21,1.61-1.23-.66,1.92,1.22,1.62-1.92-.67-1.61,1.22.66-1.91-1.22-1.62Z" transform="translate(-262.5 -262.5)" style="fill:#ffc97e"/><path d="M349.9,299l-2.41-.34,1.29-3.7-3.13,2.37-1.06-2.2-.33,2.41-3.71-1.29,2.37,3.13-2.19,1.05,2.41.34-1.29,3.7,3.13-2.36,1,2.19.34-2.41,3.71,1.3-2.38-3.14Zm-4.29,1.59-.17-.05-1.62,1.22.67-1.92-1.22-1.61,1.91.67,1.62-1.23-.67,1.92,1.23,1.62Z" transform="translate(-262.5 -262.5)" style="fill:#ffc97e"/><path d="M304.71,301.58,300.44,313l14.45,19.33L312,313.91c-1.23-.29-2.7-1.22-2.91-2.55a3.2,3.2,0,0,1,6.32-1c.21,1.33-.9,2.66-2,3.31l2.9,18.46,7.84-22.82-7.58-9.6Zm12.47,20.64L316,314.69a5.48,5.48,0,0,0,1.77-4.69,5.6,5.6,0,1,0-11.06,1.74,5.51,5.51,0,0,0,3.13,3.92l1.18,7.52-7.87-10.52,3.32-8.93,9.08-1.43,5.9,7.48Z" transform="translate(-262.5 -262.5)" style="fill:#ffc97e"/><path d="M305.3,266.67a46.39,46.39,0,1,0,53,38.63A46.39,46.39,0,0,0,305.3,266.67Zm.58,3.66A42.65,42.65,0,0,1,342,281.65l-6.3,1L278,291.69l-3,.47A42.7,42.7,0,0,1,305.88,270.33Zm21.05,52.77c-2,2.66-4.22,5.51-6.27,8.7a58.91,58.91,0,0,0-3.86,7.05l-.37,0a60.2,60.2,0,0,0-6-5.48c-2.83-2.28-5.65-4.2-8.28-6-7.93-5.4-14.19-9.66-15.7-19.26a14.43,14.43,0,0,1,0-4.35,12.48,12.48,0,0,1,23.2-5.19l.9,1.4.42-1.61a12.48,12.48,0,0,1,23.68-2.17,14.59,14.59,0,0,1,1.31,4.15C337.38,309.51,332.54,315.81,326.93,323.1Zm-48.34,15.31a42.66,42.66,0,0,1-8.33-32.09l9.33-1.46,3.17-.5h0a18.13,18.13,0,0,0,.16,4.34c1.5,9.53,7.2,14.65,13.79,19.33L285,329.88l-.09,0a1.69,1.69,0,0,1-.72-.23.89.89,0,0,1-.44-.6.82.82,0,0,1,.45-.83,1.76,1.76,0,0,1,1.19-.19,8.59,8.59,0,0,0,2.63.14c2.11-.26,2.64-1.6,2.41-3.07a5.43,5.43,0,0,0-.16-.67,3.46,3.46,0,0,0-1.14-1.65,5.47,5.47,0,0,0-2.58-1.19l1,.67a3.74,3.74,0,0,1,.71.67,2,2,0,0,1,.41.89,1.64,1.64,0,0,1-.14.93,1.75,1.75,0,0,1-1.62,1.09,3.93,3.93,0,0,1-.9-.09,5.52,5.52,0,0,0-2.82.19,3,3,0,0,0-2,3.43,3.91,3.91,0,0,0,.29,1,3,3,0,0,0,1.81,1.66,5.49,5.49,0,0,0,1.89.29.33.33,0,0,0,.24-.06L299.52,330l.64.44.51.35-15.35,2.4a7,7,0,0,1-1.51-.08,4.76,4.76,0,0,1-4.14-3.54,6.77,6.77,0,0,1-.23-.94,5.39,5.39,0,0,1,1-4.08,19.47,19.47,0,0,0,2.35-4.14,4.29,4.29,0,0,0,.31-2.22,3,3,0,0,0-1.07-1.87,3.92,3.92,0,0,0-4.62-.41,2.2,2.2,0,0,0-1.19,1.83,2.33,2.33,0,0,0,0,.46,1.69,1.69,0,0,0,1,1.27,3.13,3.13,0,0,0,1.76.26,4.53,4.53,0,0,1-1-.5,1.22,1.22,0,0,1-.48-.77,1.14,1.14,0,0,1,.65-1.19,1.49,1.49,0,0,1,1.7.11,1.47,1.47,0,0,1,.63,1,2,2,0,0,1,0,.59,4.94,4.94,0,0,1-1.06,2.15,9.39,9.39,0,0,1-1,1.16,13.72,13.72,0,0,0-2.6,3.46,7.66,7.66,0,0,0-.84,4.74,8.36,8.36,0,0,0,1.26,3.2,12.2,12.2,0,0,0,2.7,2.9.78.78,0,0,0,.69.18c2-.32,4-.64,6-.94l.1,0h0l18-2.84,1.75,1.26Zm26.67,10.47c-.29.78-.58,1.59-.85,2.4a6.32,6.32,0,0,0-.36,2.07,4.34,4.34,0,0,0,.16,1,42.85,42.85,0,0,1-12.51-4.61h.05l13.36-2.1a4.2,4.2,0,0,0,.44.41C305.45,348.34,305.35,348.61,305.26,348.88Zm24.23,2.39a.08.08,0,0,1-.07,0,21.25,21.25,0,0,0-2.82-2.36,4.64,4.64,0,0,0-1.52-.64,2.78,2.78,0,0,0-.91,0,.94.94,0,0,0-.68.28,1.56,1.56,0,0,0-.42.86,1.2,1.2,0,0,0,.38.92c.29.28.95.21,1.48.12l.4-.06.1,0,.2,0a12,12,0,0,0,1.77-.42h0c.24,0-.3.89-.37,1-.27.39-.72,1.14-1.22,1.3a12.24,12.24,0,0,1-1.79.42,10.55,10.55,0,0,1-1.13.12c-.69,0-1.38.08-1.43-.74a4,4,0,0,1,0-.78,5.54,5.54,0,0,1-2.07,1.89,6.92,6.92,0,0,1-1.83.54,10.2,10.2,0,0,1-1.22.1c-1.2,0-3.11-.41-3.78-1.47a10.28,10.28,0,0,1-1.17,1.48,5.28,5.28,0,0,1-2.22,1.37l-.18.05-.08,0-.09,0-.08,0h-.6a2.57,2.57,0,0,1-.62-.08h0l-.14,0h0l-.12,0h0l-.11-.06h0l-.11-.06,0,0-.1-.07a1.85,1.85,0,0,1-.32-.25,2.42,2.42,0,0,1-.3-2.69c.39-1.16.83-2.32,1.24-3.48a3.54,3.54,0,0,1,.5-.88l-.34-.25-.48-.37,0,0-.22-.17,0,0-.21-.19,0,0a1.8,1.8,0,0,1-.2-.19l0,0-.18-.2,0,0-.16-.21,0,0-.15-.23a2.71,2.71,0,0,1,.35-2.74,9.32,9.32,0,0,1,1-1.33,6,6,0,0,1,1.43-1.23l.2-.12L309,340l.05,0,.12-.06.07,0,.13,0,.06,0,.16-.06h0l.2-.07h.06l.15,0,.07,0,.15,0,.07,0,.16,0h.1l.14,0h1l.16,0h0l.12,0h0l.14,0h0l.11,0h0l.13.06h0l.1.06,0,0,.11.07h0l.11.09,0,0,.08.09,0,0,.09.11,0,0,.06.1,0,0,.06.14,0,0s0,.08,0,.12v0a.94.94,0,0,1,0,.16v0l0,.15v.05a1.21,1.21,0,0,1,0,.19h0l.11-.1,0,0,.07-.05,0,0,0,0h0l.05,0,1.29-.09.3,0,1.27-.12h.09l1.14-.14.37,0,1.26-.18h.05l.52-.09.3-.05.9-.16a4.93,4.93,0,0,1-.19-.54,2.29,2.29,0,0,1-.08-.28L321,339c-.08-.43.68-1.22.93-1.51l0,0v0l0,0,0,0,0,0,0,0,0,0,.06-.06,0,0,0-.05,0,0,0-.05,0,0,.05-.05,0,0,.07-.06.07-.06h0l0,0,0,0,0,0h.12l0,0h0l0,.05a6.33,6.33,0,0,0,1,2.36l.13.2.29.39c.1.13.2.26.31.38.31.38.65.75,1,1.1l.17.18c.52.53,1,1,1.51,1.52l.47.47.53.55c1.39,1.44,2.78,3.07,3,5A5.17,5.17,0,0,1,329.49,351.27Zm3.42-1.27a2.23,2.23,0,0,0,.19-1.18,9.81,9.81,0,0,0-2.64-5.14l13.22-2.07h.05A42.77,42.77,0,0,1,332.91,350Zm19.81-23.23L325.52,331c.41-.59.83-1.16,1.24-1.73l19.26-3h0q2.6-.44,5.19-.82a.82.82,0,0,0,.61-.38,12.05,12.05,0,0,0,1.67-3.6,8.27,8.27,0,0,0,.23-3.43,7.76,7.76,0,0,0-2.26-4.25,13.88,13.88,0,0,0-3.53-2.5,9.37,9.37,0,0,1-1.34-.78,5,5,0,0,1-1.67-1.73,2.12,2.12,0,0,1-.19-.55,1.44,1.44,0,0,1,.3-1.12,1.5,1.5,0,0,1,1.59-.62,1.13,1.13,0,0,1,1,.93,1.23,1.23,0,0,1-.22.88,5,5,0,0,1-.8.79,3.21,3.21,0,0,0,1.59-.8,1.67,1.67,0,0,0,.55-1.51,3.6,3.6,0,0,0-.12-.44,2.19,2.19,0,0,0-1.69-1.38,3.92,3.92,0,0,0-4.27,1.81,3,3,0,0,0-.45,2.11,4.29,4.29,0,0,0,1,2,19.49,19.49,0,0,0,3.51,3.22,5.43,5.43,0,0,1,2.23,3.57,6,6,0,0,1,.07,1,4.78,4.78,0,0,1-2.86,4.65,7.08,7.08,0,0,1-1.41.54L329,326.31l.75-1,.09-.12L344.29,323a.32.32,0,0,0,.25,0,5.59,5.59,0,0,0,1.71-.85,3.05,3.05,0,0,0,1.21-2.14,3.7,3.7,0,0,0,0-1,3,3,0,0,0-2.95-2.65,5.36,5.36,0,0,0-2.74.68,3.79,3.79,0,0,1-.83.36,1.74,1.74,0,0,1-1.87-.54,1.59,1.59,0,0,1-.42-.85,1.85,1.85,0,0,1,.12-1,3.07,3.07,0,0,1,.47-.85c.25-.32.51-.64.77-.95a5.47,5.47,0,0,0-2.1,1.92,3.57,3.57,0,0,0-.58,1.92,4,4,0,0,0,.06.69c.23,1.46,1.14,2.58,3.23,2.18a8.5,8.5,0,0,0,2.46-.93,1.66,1.66,0,0,1,1.19-.19.82.82,0,0,1,.68.65.88.88,0,0,1-.23.71,1.76,1.76,0,0,1-.61.44l-.09.05-12.07,1.9a51.9,51.9,0,0,0,5.44-8.59,23.1,23.1,0,0,0,2.12-14.09,18.44,18.44,0,0,0-1.17-4.18h0l3.37-.53,9.12-1.43a42.61,42.61,0,0,1,1.91,33.09Z" transform="translate(-262.5 -262.5)" style="fill:#ffc97e"/><path d="M310.75,350a12.69,12.69,0,0,0-2.12-2,14.4,14.4,0,0,0-.84,2.61,1.91,1.91,0,0,0,1.77,2.25,3,3,0,0,0,.94,0,2.15,2.15,0,0,0,.5-.12,3.49,3.49,0,0,0,.53-.22,4.29,4.29,0,0,0,.09-.45,3.13,3.13,0,0,0-.14-.81A4.23,4.23,0,0,0,310.75,350Z" transform="translate(-262.5 -262.5)" style="fill:#ffc97e"/><path d="M324.73,344.58h0l-.23-.23-.05-.06-.17-.17-.08-.07-.14-.15-.09-.09-.14-.15-.08-.09-.15-.15-.07-.08-.18-.19,0,0-.22-.24,0-.05-.17-.19-.07-.09-.13-.16-.08-.1-.12-.15-.08-.1-.11-.16-.08-.1-.11-.16a.36.36,0,0,0-.07-.1l-.11-.18-.06-.09-.16-.27c-.25.37-.74,1.19-1.21,1.28l-1.1.21-.24,0-1.08.18-.71.11h0a14.69,14.69,0,0,1,1.28.74,4.81,4.81,0,0,1,.41.27,8.75,8.75,0,0,1,.78.58c.24.21.48.43.71.66a1.54,1.54,0,0,1,.17.19,5.85,5.85,0,0,1,1.65,3.51,7.62,7.62,0,0,1,.71-1,4.3,4.3,0,0,1,2.61-1.75l.36,0-.88-.88Z" transform="translate(-262.5 -262.5)" style="fill:#ffc97e"/><path d="M317.57,346.26l-.66-.45-.12-.09a1.94,1.94,0,0,0-.4-.22l-.07-.05-.54-.3-.07,0-.54-.29-.05,0-1.23-.6-.47-.23-.13-.07-.53-.26-.08,0-.55-.29s0-.06,0-.13l-.08.07,0,0-.07.06h0l-.08.06h0l-.06,0h0l-.06,0h0l0,0h0a.43.43,0,0,1,0,0h0v-.11a.09.09,0,0,0,0-.05.25.25,0,0,0,0-.08v-.05s0,0,0-.06a.43.43,0,0,0,0-.05s0,0,0-.06a.43.43,0,0,0,0-.05l0-.06s0,0,0-.05,0,0,0,0,0,0,0-.05l0-.05,0,0,0,0,0,0,0,0,0,0,0-.05,0,0,0,0,0,0,0,0,0,0,0,0,0,0-.05,0,0,0-.06,0,0,0-.05,0-.05,0-.06,0,0,0-.06,0h-.05l-.06,0h-.05l-.07,0h0l-.08,0H310l-.12,0h-.94l-.14,0a5.32,5.32,0,0,0-.78.22l-.15.07c-.15.07-.31.17-.46.25a2.25,2.25,0,0,0,0,.26s0,.08,0,.12a1.37,1.37,0,0,0,.07.24,2.22,2.22,0,0,0,.29.55,2.16,2.16,0,0,0,.27.33,2.91,2.91,0,0,0,.3.31l.32.3c.45.38.95.73,1.41,1.07l.34.26.53.42,0,0,.52.44a7.32,7.32,0,0,1,1.34,1.5,3.53,3.53,0,0,1,.48,1.15,6,6,0,0,1,1.45-1.4,2.74,2.74,0,0,1,1.11-.42,7,7,0,0,1,1.93.05c.17,0-.6,1.21-.66,1.29-.18.23-.64.93-1,1H316a6.49,6.49,0,0,0-1.76-.06h0a3.18,3.18,0,0,0,2.12,1.46,6.37,6.37,0,0,0,2.68.1l.25-.05.33-.06a1,1,0,0,0,.77-1.27A7.33,7.33,0,0,0,317.57,346.26Z" transform="translate(-262.5 -262.5)" style="fill:#ffc97e"/><path d="M361.89,304.74a50,50,0,1,0-41.63,57.15A50,50,0,0,0,361.89,304.74Zm-2.42,19.45a48.52,48.52,0,1,1,.84-19.2A48.21,48.21,0,0,1,359.47,324.19Z" transform="translate(-262.5 -262.5)" style="fill:#ffc97e"/><path d="M300.91,281.24c.55,3.5,3.83,5.35,7.43,4.78s6.16-3.33,5.61-6.83a6.16,6.16,0,0,0-4-5,5.4,5.4,0,0,0,.55-.58,1.5,1.5,0,0,0,.21-.34.58.58,0,0,0,0-.54c-.18-.27-.57-.31-1.09-.28a10,10,0,0,0-1.23.14l-.63.11a6.21,6.21,0,0,0-.38-.57,3.55,3.55,0,0,0-.51-.59,1,1,0,0,0-.79-.31c-.4.07-.7.45-1,1.24a5.63,5.63,0,0,0-.2.65,10.34,10.34,0,0,0-1.06.11c-1,.17-1.56.42-1.7.83a.65.65,0,0,0,.06.53,1.86,1.86,0,0,0,.94.72A6.14,6.14,0,0,0,300.91,281.24Zm1.62-6.85a.23.23,0,0,1,0-.18c.07-.23.54-.41,1.34-.54s1.32-.13,1.33-.13h0v0s.4-1.77.9-1.85c.2,0,.5.22.87.72a6.5,6.5,0,0,1,.5.79v0h0l.9-.16c1.51-.24,1.83-.13,1.89,0s0,.29-.69.93c-.41.37-.85.7-.85.71l0,0,0,0a2.86,2.86,0,0,1,.44.57,1.06,1.06,0,0,1,.1,1.09.39.39,0,0,1-.31.19c-.73.12-2.22-.82-2.23-.83h0a7.29,7.29,0,0,1-2.09,1.53.28.28,0,0,1-.13,0,.21.21,0,0,1-.14-.12c-.23-.41.21-1.65.22-1.66v0h0S302.8,274.89,302.53,274.39Z" transform="translate(-262.5 -262.5)" style="fill:#ffc97e"/><path d="M305,275l.16.13-.15.43a5.15,5.15,0,0,0-.17.58,2.8,2.8,0,0,0-.08.44,5.49,5.49,0,0,0,.78-.57c.29-.23.54-.46.68-.59a2.25,2.25,0,0,0,.44,0,2.71,2.71,0,0,0,.41-.09c.12.07.4.24.72.39a2.32,2.32,0,0,0,1.06.32c.11-.27-.25-.8-.48-1l-.34-.32a.82.82,0,0,0,.12-.25l.27-.2s.33-.24.67-.54c.13-.11.23-.21.32-.3l-.95.12-.54.09a1.52,1.52,0,0,0-.51-.32,1.93,1.93,0,0,0-.55-.13l-.24-.36a2.88,2.88,0,0,0-.46-.55,3.21,3.21,0,0,0-.29.66c-.05.16-.09.31-.13.43a1.93,1.93,0,0,0-.49.27,1.3,1.3,0,0,0-.4.45c-.24,0-.59.05-.94.11a3.93,3.93,0,0,0-.74.16,4.83,4.83,0,0,0,.68.33c.42.17.81.28.81.28Zm.26-.62v0h0v0h0v0h0v0h0v0h0v0h0l0,0h0l0,0h0v0h0l.11-.1.09-.07.16-.09h0l0,0h1.27l.11,0,.07,0a.61.61,0,0,1,.14.07h0l.06,0h0l.06,0h0l.05.05h0l.05.05h0l0,.05h0l.05.06c0,.35-.45.72-1.12.82a2,2,0,0,1-.54,0h-.16l-.14,0-.09,0a.84.84,0,0,1-.19-.09l0,0a.37.37,0,0,1-.16-.25h0v0h0v0Z" transform="translate(-262.5 -262.5)" style="fill:#ffc97e"/></svg>