<svg id="Layer_1" data-name="Layer 1" xmlns="http://www.w3.org/2000/svg" viewBox="0 0 512 512"><defs><style>.cls-1{fill:#727272;}</style></defs><title>gallows-handdrawn</title><path class="cls-1" d="M482.06,60.25c-8.83-5.25-46.3-9.07-97.87-9.79-17.77-.25-36-.24-54-.24H277.51v0H225.78l0,0H50.62V13.09h.28v0H321l115.83.22,23.82-.14L471.92,13l2.75-.07c.23,0,.16-.05.27-.08l.53-.18a2.5,2.5,0,0,1,.24.49l.06.18c0-.06,0,.85.07,1.22l.14,3q.33,5.94.64,11.65c.47,7.6,1,14.88,1.66,21.89.89,9.86,2.83,9.17,3.34-2.94L483.16,5,467.32,4.6,360.56,2.91c-51-.63-102-1.38-153.22-1.57L37.53,0q0,31.63-.06,63.36l46-.36q0,17.82-.06,35.67.2,20.41.4,40.92c.07,4.09-.08,8.69-.24,12.75-1.72,43.61-1.92,88.19-1.9,132.9q0,33.54,0,67.07-.08,16.74-.16,33.42-.16,14.59-.31,29.11L66.21,426a191.37,191.37,0,0,0-30.13,27c-2.93,3.32-1.53,4.68,3,1.9C46.21,450.55,53.5,446,60.75,441l20.72-14.32,17.88.21,6.47,0c18.15-.24,31.85-1.86,34.92-3.89l19.12,14.87L175.5,450l7.78,6.09,3.88,3.05,2,1.62c-.09.57-.17,5.42-.25,9.09l-.22,11.48-.23,17.51-9.32.08-14.85.34a66.11,66.11,0,0,1-6.68-.24c-19.82-1.49-40-1.84-60.32-1.89l-30.48,0H51.54l-7.24,0-.57-.08c.13-1.82.31-10.84.6-16.64,0-1.09,0-2.27,0-3.39-.3-12.05-2.84-20.37-5.59-18.33s-4.89,7-6.59,14.48A117.27,117.27,0,0,0,30,486q-.41,3.6-.68,7.55c-.09,1.57-.17,1.95-.24,5.14q-.08,4-.17,8.1c0,1.67,0,3.34-.07,5.07l28.68.17H201.6V487.73h0V454.48L144,411.22h-3.73c0-.16,0-.29,0-.46.79-15.78,1.51-32.16,1.91-48.87.56-29.66,1.12-59.66,1.69-89.68q.4-27.57.82-55.18c8.24-2.85,21.88-12.74,37.45-27.48,6.57-6.22,13.12-12.78,19.6-19.26L307,65.06c39.53,0,79,0,118,.69A29,29,0,0,0,422.79,75c-.25,3.08-.24,6.23-.24,9.35q0,30.13,0,60.26h0q0,22.49,0,45c-5.22-2.12-10.61.09-15.83-1.79a.82.82,0,0,0-.41,0c-1.46.3-2.47,2.84-2.22,5.59.47,5.25,2.47,9.07,5.22,9.79a11.27,11.27,0,0,0,2.88.24h10.27q0,2.87-.09,5.74c-5.16-2-10.48.15-15.65-1.71a.81.81,0,0,0-.41,0c-1.46.3-2.47,2.84-2.22,5.59.47,5.25,2.47,9.07,5.22,9.79a11.27,11.27,0,0,0,2.88.24H424a29.89,29.89,0,0,0,1.65,3.93l-1,.63c-2,1.26-2.8,1.85-4.23,2.85-2.56,1.83-5,3.79-7.45,5.81-11.1,9.65-21.33,21-27.58,35a69,69,0,0,0-6.1,22.13c-.79,7.55-.41,16,2.61,23.41.71,1.63,1.12,3.61,1.82,5.24a47,47,0,0,0,18.59,23.5A50.39,50.39,0,0,0,432,353.86c21.25-.52,40.65-14.86,48.72-34.22.37-.88.67-1.87,1-2.8,2.7-10.46-.57-17.6-3.17-15.81-5.31,3.16-9.22,14.36-18.94,24.65a44.26,44.26,0,0,1-11.62,9c-14,7.53-32.62,5-44-6.17a38.19,38.19,0,0,1-11.24-20.44c-1.41-7.58-.37-16.52,1.9-24.52h0a75.17,75.17,0,0,1,15.24-27.36,106.49,106.49,0,0,1,11.4-11.47q3.09-2.65,6.34-5.08l2.62-1.86,3.22,2.33c2.36,1.78,4.65,3.67,6.87,5.63a89.66,89.66,0,0,1,21.27,27.42,197.14,197.14,0,0,1,10,25.53c1.09,3,3,2.89,3.28-1.06a43.77,43.77,0,0,0,0-9.37,46.86,46.86,0,0,0-1.63-9.61c-2.94-11.4-9.12-22-16.76-31.22a110.88,110.88,0,0,0-11.32-11.83,92.58,92.58,0,0,0-14.94-11.28l-.61.35c.11-.51.22-1,.33-1.54h.7v0c4.8,0,9.61,0,14.41,0,2.06,0,4.12.09,6.18.22,1.89.12,3.49-1.14,4.89-3.52.53-.89.49-2.83-.16-3.34a12.31,12.31,0,0,0-3.1-1.91,45,45,0,0,0-5.69-1.69,53.77,53.77,0,0,0-8.17-1.57c-2.43-.18-4.86-.79-7.29-1.15q.33-3.37.6-6.75c4.25,0,8.5,0,12.75,0,2.06,0,4.12.09,6.18.22,1.89.12,3.49-1.14,4.89-3.52.53-.89.49-2.83-.16-3.34a12.31,12.31,0,0,0-3.1-1.91,45,45,0,0,0-5.69-1.69,53.8,53.8,0,0,0-8.17-1.57,55,55,0,0,1-5.75-.9c.46-6.35.89-12.7,1-19.07.34-15.11,2.27-30.14,1-45.35a10.4,10.4,0,0,1,.24-2.63c3.58-18.71.58-38.28,2.67-57.18a4.65,4.65,0,0,0,0-.73h2.19C467.79,65.55,486.69,63,482.06,60.25ZM210.93,65,160.52,115.4l-15,14.89q.31-33,.61-66Q178.36,64.91,210.93,65ZM117.5,411.2l-21.91-.06v0l0-.15,0-.91.08-1.84.15-3.75.42-15.78c.25-14.92.24-30.21.24-45.33V65.61h.24v0h36.83v76.5l-.1.1-.13,27.41c0,5.09,0,10,.22,14.63V239q-.11,48.64-.22,97.3a696.35,696.35,0,0,0,3.31,74.93ZM280.05,74c-1.7,1.8-3.78,3.67-5.63,5.3C233,115.57,194.5,158.35,153.77,196.12c-.92.86-1.85,1.86-2.75,2.79-2.36,2.46-4.44,4.83-6.18,7q.41-30.66.59-61.4l8.08-7.65c18.79-17.9,37.7-35.75,56.27-54l18.3-17.75q30.12.07,60.35,0Z"/></svg>